<?xml version="1.0" encoding="UTF-8" standalone="no"?>
<svg
   xmlns:dc="http://purl.org/dc/elements/1.1/"
   xmlns:cc="http://creativecommons.org/ns#"
   xmlns:rdf="http://www.w3.org/1999/02/22-rdf-syntax-ns#"
   xmlns:svg="http://www.w3.org/2000/svg"
   xmlns="http://www.w3.org/2000/svg"
   xmlns:sodipodi="http://sodipodi.sourceforge.net/DTD/sodipodi-0.dtd"
   xmlns:inkscape="http://www.inkscape.org/namespaces/inkscape"
   height="512px"
   style="enable-background:new 0 0 512 512;"
   version="1.1"
   viewBox="0 0 512 512"
   width="512px"
   xml:space="preserve"
   id="svg15"
   sodipodi:docname="ataque.svg"
   inkscape:version="0.92.4 (5da689c313, 2019-01-14)"><metadata
     id="metadata21"><rdf:RDF><cc:Work
         rdf:about=""><dc:format>image/svg+xml</dc:format><dc:type
           rdf:resource="http://purl.org/dc/dcmitype/StillImage" /></cc:Work></rdf:RDF></metadata><defs
     id="defs19" /><sodipodi:namedview
     pagecolor="#ffffff"
     bordercolor="#666666"
     borderopacity="1"
     objecttolerance="10"
     gridtolerance="10"
     guidetolerance="10"
     inkscape:pageopacity="0"
     inkscape:pageshadow="2"
     inkscape:window-width="1366"
     inkscape:window-height="705"
     id="namedview17"
     showgrid="false"
     inkscape:zoom="0.4609375"
     inkscape:cx="256"
     inkscape:cy="256"
     inkscape:window-x="-8"
     inkscape:window-y="-8"
     inkscape:window-maximized="1"
     inkscape:current-layer="svg15" /><g
     id="_x31_30_x2C__sword_x2C__fencing_x2C__sports_x2C__weapon"
     style="fill:#37353f;fill-opacity:0.94117647"><g
       id="XMLID_13813_"
       style="fill:#37353f;fill-opacity:0.94117647"><path
         d="M190.101,250.133l26.359-26.359l-83.811-83.811c-1.82-1.82-1.82-4.771,0-6.59    c1.82-1.819,4.77-1.819,6.59,0l83.811,83.811l26.359-26.359l-89.495-89.495L84.289,82.14l16.393,78.575L190.101,250.133z"
         id="XMLID_13814_"
         style="fill:#37353f;fill-opacity:0.94117647" /><rect
         height="63.204"
         id="XMLID_13815_"
         transform="matrix(0.7071 -0.7071 0.7071 0.7071 -147.2936 307.9705)"
         width="37.278"
         x="279.477"
         y="300.187"
         style="fill:#37353f;fill-opacity:0.94117647" /><path
         d="M90.43,389.344c-4.709,4.709-7.394,10.863-7.558,17.326c-0.163,6.375,2.153,12.291,6.522,16.66    c4.211,4.211,9.908,6.529,16.042,6.529c6.692,0,13.065-2.686,17.943-7.566l22.029-22.029l-32.949-32.949L90.43,389.344z"
         id="XMLID_13816_"
         style="fill:#37353f;fill-opacity:0.94117647" /><path
         d="M429.129,406.67c-0.165-6.463-2.85-12.617-7.559-17.324l-22.029-22.031l-32.949,32.949l22.029,22.029    c4.879,4.881,11.251,7.566,17.942,7.566c6.135,0,11.832-2.318,16.043-6.529C426.975,418.961,429.291,413.045,429.129,406.67z"
         id="XMLID_13817_"
         style="fill:#37353f;fill-opacity:0.94117647" /><rect
         height="18.641"
         id="XMLID_13818_"
         transform="matrix(-0.7071 -0.7071 0.7071 -0.7071 -19.4581 733.1609)"
         width="46.597"
         x="118.815"
         y="361.29"
         style="fill:#37353f;fill-opacity:0.94117647" /><rect
         height="18.638"
         id="XMLID_13819_"
         transform="matrix(-0.7071 -0.7071 0.7071 -0.7071 28.2824 713.3979)"
         width="46.596"
         x="138.585"
         y="341.523"
         style="fill:#37353f;fill-opacity:0.94117647" /><path
         d="M427.711,82.14l-75.627,19.189l-92.79,92.79l-65.898,65.898l-47.988,47.988l26.36,26.359    l200.994-200.993c1.818-1.819,4.771-1.819,6.589,0c1.82,1.82,1.82,4.771,0,6.59L178.358,340.955l26.36,26.359l206.601-206.599    L427.711,82.14z"
         id="XMLID_13820_"
         style="fill:#37353f;fill-opacity:0.94117647" /><rect
         height="18.64"
         id="XMLID_13821_"
         transform="matrix(0.7071 -0.7071 0.7071 0.7071 -145.5347 350.3372)"
         width="46.599"
         x="326.819"
         y="341.521"
         style="fill:#37353f;fill-opacity:0.94117647" /><rect
         height="18.641"
         id="XMLID_13822_"
         transform="matrix(0.7071 -0.7071 0.7071 0.7071 -153.7236 370.099)"
         width="46.597"
         x="346.589"
         y="361.29"
         style="fill:#37353f;fill-opacity:0.94117647" /><rect
         height="63.205"
         id="XMLID_13823_"
         transform="matrix(-0.7071 0.7071 -0.7071 -0.7071 776.4762 276.0517)"
         width="37.278"
         x="312.427"
         y="267.237"
         style="fill:#37353f;fill-opacity:0.94117647" /></g></g><g
     id="Layer_1" /></svg>