<?xml version="1.0" encoding="UTF-8" standalone="no"?>
<svg
   xmlns:dc="http://purl.org/dc/elements/1.1/"
   xmlns:cc="http://creativecommons.org/ns#"
   xmlns:rdf="http://www.w3.org/1999/02/22-rdf-syntax-ns#"
   xmlns:svg="http://www.w3.org/2000/svg"
   xmlns="http://www.w3.org/2000/svg"
   xmlns:sodipodi="http://sodipodi.sourceforge.net/DTD/sodipodi-0.dtd"
   xmlns:inkscape="http://www.inkscape.org/namespaces/inkscape"
   height="64px"
   id="ICONS"
   style="enable-background:new 0 0 64 64;"
   version="1.1"
   viewBox="0 0 64 64"
   width="64px"
   xml:space="preserve"
   sodipodi:docname="death.svg"
   inkscape:version="0.92.4 (5da689c313, 2019-01-14)"><metadata
     id="metadata39"><rdf:RDF><cc:Work
         rdf:about=""><dc:format>image/svg+xml</dc:format><dc:type
           rdf:resource="http://purl.org/dc/dcmitype/StillImage" /></cc:Work></rdf:RDF></metadata><defs
     id="defs37" /><sodipodi:namedview
     pagecolor="#ffffff"
     bordercolor="#666666"
     borderopacity="1"
     objecttolerance="10"
     gridtolerance="10"
     guidetolerance="10"
     inkscape:pageopacity="0"
     inkscape:pageshadow="2"
     inkscape:window-width="1366"
     inkscape:window-height="705"
     id="namedview35"
     showgrid="false"
     inkscape:zoom="3.6875"
     inkscape:cx="32"
     inkscape:cy="32"
     inkscape:window-x="-8"
     inkscape:window-y="-8"
     inkscape:window-maximized="1"
     inkscape:current-layer="ICONS" /><path
     inkscape:connector-curvature="0"
     id="path2"
     style="fill:none;stroke:#343536;stroke-width:3.755;stroke-linecap:round;stroke-linejoin:round;stroke-miterlimit:10;stroke-opacity:1;stroke-dasharray:none"
     d="m 15.512444,26.948618 c 2.447232,-6.260236 8.879955,-10.731833 16.419759,-10.731833 7.539805,0 13.972528,4.471597 16.41976,10.731833" /><line
     id="line4"
     y2="3.1291831"
     y1="16.216785"
     x2="31.932203"
     x1="31.932203"
     style="fill:none;stroke:#343536;stroke-width:3.755;stroke-linecap:round;stroke-linejoin:round;stroke-miterlimit:10;stroke-opacity:1;stroke-dasharray:none" /><line
     id="line6"
     y2="8.5823507"
     y1="8.5823507"
     x2="37.758945"
     x1="26.105461"
     style="fill:none;stroke:#343536;stroke-width:3.755;stroke-linecap:round;stroke-linejoin:round;stroke-miterlimit:10;stroke-opacity:1;stroke-dasharray:none" /><line
     id="line8"
     y2="62.023388"
     y1="62.023388"
     x2="58.735218"
     x1="5.1291895"
     style="fill:none;stroke:#343536;stroke-width:3.755;stroke-linecap:round;stroke-linejoin:round;stroke-miterlimit:10;stroke-opacity:1;stroke-dasharray:none" /><line
     id="line10"
     y2="55.92675"
     y1="26.948618"
     x2="43.084587"
     x1="48.351963"
     style="fill:none;stroke:#343536;stroke-width:3.755;stroke-linecap:round;stroke-linejoin:round;stroke-miterlimit:10;stroke-opacity:1;stroke-dasharray:none" /><line
     id="line12"
     y2="26.948618"
     y1="53.352852"
     x2="15.512444"
     x1="20.197145"
     style="fill:none;stroke:#343536;stroke-width:3.755;stroke-linecap:round;stroke-linejoin:round;stroke-miterlimit:10;stroke-opacity:1;stroke-dasharray:none" /><g
     style="fill:#343536;fill-opacity:1;stroke:none;stroke-opacity:1;stroke-width:3.33075457;stroke-miterlimit:10;stroke-dasharray:none"
     id="g26"
     transform="matrix(1.1653484,0,0,1.0906335,-5.3589464,-2.3239841)"><path
       inkscape:connector-curvature="0"
       id="path14"
       style="fill:#343536;fill-opacity:1;stroke:none;stroke-opacity:1;stroke-width:3.33075457;stroke-miterlimit:10;stroke-dasharray:none"
       d="m 23.777,35.039 v -6.204 c 0,-0.124 0.044,-0.231 0.131,-0.322 0.088,-0.091 0.2,-0.136 0.337,-0.136 h 2.019 c 1.6,0 2.399,0.696 2.399,2.087 0,1.014 -0.394,1.674 -1.18,1.98 l 1.19,2.156 c 0.033,0.045 0.049,0.104 0.049,0.176 0,0.188 -0.103,0.367 -0.307,0.536 -0.205,0.169 -0.421,0.254 -0.649,0.254 -0.228,0 -0.39,-0.094 -0.487,-0.283 l -1.336,-2.595 h -0.644 v 2.351 c 0,0.15 -0.075,0.265 -0.224,0.346 -0.15,0.082 -0.329,0.122 -0.537,0.122 -0.208,0 -0.387,-0.041 -0.537,-0.122 -0.149,-0.081 -0.224,-0.196 -0.224,-0.346 z m 1.521,-3.521 h 0.966 c 0.286,0 0.504,-0.07 0.653,-0.209 0.15,-0.14 0.225,-0.372 0.225,-0.698 0,-0.325 -0.075,-0.557 -0.225,-0.697 -0.149,-0.14 -0.367,-0.209 -0.653,-0.209 h -0.966 z" /><path
       inkscape:connector-curvature="0"
       id="path16"
       style="fill:#343536;fill-opacity:1;stroke:none;stroke-opacity:1;stroke-width:3.33075457;stroke-miterlimit:10;stroke-dasharray:none"
       d="m 29.171,34.815 c 0,-0.208 0.073,-0.385 0.218,-0.532 0.145,-0.146 0.326,-0.22 0.543,-0.22 0.204,0 0.38,0.075 0.529,0.225 0.148,0.149 0.222,0.325 0.222,0.527 0,0.202 -0.074,0.377 -0.222,0.526 -0.148,0.15 -0.325,0.225 -0.529,0.225 -0.211,0 -0.391,-0.075 -0.539,-0.225 -0.148,-0.149 -0.222,-0.324 -0.222,-0.526 z" /><path
       inkscape:connector-curvature="0"
       id="path18"
       style="fill:#343536;fill-opacity:1;stroke:none;stroke-opacity:1;stroke-width:3.33075457;stroke-miterlimit:10;stroke-dasharray:none"
       d="m 31.415,35.039 v -6.204 c 0,-0.15 0.075,-0.264 0.224,-0.342 0.149,-0.078 0.329,-0.117 0.537,-0.117 0.208,0 0.387,0.039 0.537,0.117 0.149,0.078 0.224,0.192 0.224,0.342 v 6.204 c 0,0.15 -0.075,0.265 -0.224,0.346 -0.15,0.082 -0.329,0.122 -0.537,0.122 -0.208,0 -0.387,-0.041 -0.537,-0.122 -0.15,-0.081 -0.224,-0.196 -0.224,-0.346 z" /><path
       inkscape:connector-curvature="0"
       id="path20"
       style="fill:#343536;fill-opacity:1;stroke:none;stroke-opacity:1;stroke-width:3.33075457;stroke-miterlimit:10;stroke-dasharray:none"
       d="m 33.687,34.815 c 0,-0.208 0.073,-0.385 0.218,-0.532 0.145,-0.146 0.326,-0.22 0.543,-0.22 0.204,0 0.38,0.075 0.529,0.225 0.148,0.149 0.222,0.325 0.222,0.527 0,0.202 -0.074,0.377 -0.222,0.526 -0.148,0.15 -0.325,0.225 -0.529,0.225 -0.211,0 -0.391,-0.075 -0.539,-0.225 -0.148,-0.149 -0.222,-0.324 -0.222,-0.526 z" /><path
       inkscape:connector-curvature="0"
       id="path22"
       style="fill:#343536;fill-opacity:1;stroke:none;stroke-opacity:1;stroke-width:3.33075457;stroke-miterlimit:10;stroke-dasharray:none"
       d="m 35.931,35.039 v -6.204 c 0,-0.124 0.052,-0.231 0.156,-0.322 0.104,-0.091 0.241,-0.136 0.41,-0.136 h 2.02 c 0.696,0 1.253,0.18 1.673,0.541 0.419,0.361 0.629,0.929 0.629,1.702 v 0.049 c 0,0.774 -0.219,1.345 -0.658,1.712 -0.439,0.368 -1.02,0.551 -1.741,0.551 h -0.966 v 2.107 c 0,0.15 -0.075,0.265 -0.224,0.346 -0.15,0.082 -0.329,0.122 -0.537,0.122 -0.208,0 -0.387,-0.041 -0.537,-0.122 -0.151,-0.081 -0.225,-0.196 -0.225,-0.346 z m 1.521,-3.277 h 0.966 c 0.585,0 0.878,-0.325 0.878,-0.976 v -0.107 c 0,-0.65 -0.292,-0.975 -0.878,-0.975 h -0.966 z" /><path
       inkscape:connector-curvature="0"
       id="path24"
       style="fill:#343536;fill-opacity:1;stroke:none;stroke-opacity:1;stroke-width:3.33075457;stroke-miterlimit:10;stroke-dasharray:none"
       d="m 40.476,34.815 c 0,-0.208 0.073,-0.385 0.218,-0.532 0.145,-0.146 0.326,-0.22 0.543,-0.22 0.204,0 0.38,0.075 0.529,0.225 0.148,0.149 0.222,0.325 0.222,0.527 0,0.202 -0.074,0.377 -0.222,0.526 -0.148,0.15 -0.325,0.225 -0.529,0.225 -0.211,0 -0.391,-0.075 -0.539,-0.225 -0.148,-0.149 -0.222,-0.324 -0.222,-0.526 z" /></g><polyline
     id="polyline28"
     style="fill:none;stroke:#343536;stroke-width:3.33075457;stroke-linecap:round;stroke-linejoin:round;stroke-miterlimit:10;stroke-opacity:1;stroke-dasharray:none"
     points="   40.625,59 37.875,49.875 43.357,55.125 48,47.013 49,54 54.666,47.013 52,59  "
     transform="matrix(1.1653484,0,0,1.0906335,-5.3589464,-2.3239841)" /><polyline
     id="polyline30"
     style="fill:none;stroke:#343536;stroke-width:3.33075457;stroke-linecap:round;stroke-linejoin:round;stroke-miterlimit:10;stroke-opacity:1;stroke-dasharray:none"
     points="   23.875,58.997 25,49 19,53 13,44 14,54 9.501,52.504 12,59  "
     transform="matrix(1.1653484,0,0,1.0906335,-5.3589464,-2.3239841)" /></svg>