<?xml version="1.0" encoding="UTF-8" standalone="no"?>
<!-- Created with Inkscape (http://www.inkscape.org/) -->

<svg
   xmlns:dc="http://purl.org/dc/elements/1.1/"
   xmlns:cc="http://creativecommons.org/ns#"
   xmlns:rdf="http://www.w3.org/1999/02/22-rdf-syntax-ns#"
   xmlns:svg="http://www.w3.org/2000/svg"
   xmlns="http://www.w3.org/2000/svg"
   xmlns:sodipodi="http://sodipodi.sourceforge.net/DTD/sodipodi-0.dtd"
   xmlns:inkscape="http://www.inkscape.org/namespaces/inkscape"
   width="360"
   height="42"
   viewBox="0 0 95.2506 11.1125"
   version="1.1"
   id="svg1503"
   inkscape:version="0.92.4 (5da689c313, 2019-01-14)"
   sodipodi:docname="divider.svg">
  <defs
     id="defs1497" />
  <sodipodi:namedview
     id="base"
     pagecolor="#ffffff"
     bordercolor="#666666"
     borderopacity="1.0"
     inkscape:pageopacity="0.0"
     inkscape:pageshadow="2"
     inkscape:zoom="1.4"
     inkscape:cx="304.8376"
     inkscape:cy="50.795222"
     inkscape:document-units="mm"
     inkscape:current-layer="layer1"
     showgrid="false"
     inkscape:window-width="1366"
     inkscape:window-height="705"
     inkscape:window-x="-8"
     inkscape:window-y="-8"
     inkscape:window-maximized="1"
     units="px" />
  <metadata
     id="metadata1500">
    <rdf:RDF>
      <cc:Work
         rdf:about="">
        <dc:format>image/svg+xml</dc:format>
        <dc:type
           rdf:resource="http://purl.org/dc/dcmitype/StillImage" />
        <dc:title></dc:title>
      </cc:Work>
    </rdf:RDF>
  </metadata>
  <g
     inkscape:label="Camada 1"
     inkscape:groupmode="layer"
     id="layer1"
     transform="translate(0,-285.88747)">
    <path
       inkscape:connector-curvature="0"
       id="path662"
       style="fill:#373435;fill-opacity:1;fill-rule:evenodd;stroke:none;stroke-width:0.03527778"
       d="m 89.2055,291.99012 c -12.173305,0.2209 -24.307444,0.2209 -36.340344,0.68336 0.40146,-0.4222 0.40146,-0.88413 0,-1.38642 12.11368,0.4819 24.226661,0.56237 36.340344,0.70306" />
    <path
       inkscape:connector-curvature="0"
       id="path664"
       style="fill:#373435;fill-opacity:1;fill-rule:evenodd;stroke:none;stroke-width:0.03527778"
       d="m 69.579056,292.53265 c 0.30128,0 0.54222,-0.2413 0.54222,-0.54253 0,-0.30124 -0.24094,-0.54226 -0.54222,-0.54226 -0.30162,0 -0.54257,0.24102 -0.54257,0.54226 0,0.30123 0.24095,0.54253 0.54257,0.54253" />
    <path
       inkscape:connector-curvature="0"
       id="path666"
       style="fill:#373435;fill-opacity:1;fill-rule:evenodd;stroke:none;stroke-width:0.03527778"
       d="m 69.579056,292.3316 c 0.18063,0 0.34114,-0.16083 0.34114,-0.34148 0,-0.18094 -0.16051,-0.34146 -0.34114,-0.34146 -0.18097,0 -0.34149,0.16052 -0.34149,0.34146 0,0.18065 0.16052,0.34148 0.34149,0.34148" />
    <path
       inkscape:connector-curvature="0"
       id="path668"
       style="fill:#373435;fill-opacity:1;fill-rule:evenodd;stroke:none;stroke-width:0.03527778"
       d="m 57.847436,292.83403 c 0.44168,0 0.82338,-0.38213 0.82338,-0.84391 0,-0.46246 -0.3817,-0.84378 -0.82338,-0.84378 -0.46249,0 -0.8442,0.38132 -0.8442,0.84378 0,0.46178 0.38171,0.84391 0.8442,0.84391" />
    <path
       inkscape:connector-curvature="0"
       id="path670"
       style="fill:#373435;fill-opacity:1;fill-rule:evenodd;stroke:none;stroke-width:0.03527778"
       d="m 57.847436,292.51254 c 0.28116,0 0.502,-0.2413 0.502,-0.52242 0,-0.30124 -0.22084,-0.52212 -0.502,-0.52212 -0.28152,0 -0.52282,0.22088 -0.52282,0.52212 0,0.28112 0.2413,0.52242 0.52282,0.52242" />
    <path
       inkscape:connector-curvature="0"
       id="path672"
       style="fill:#373435;fill-opacity:1;fill-rule:evenodd;stroke:none;stroke-width:0.03527778"
       d="m 49.028346,293.63731 c 0.22048,-0.98436 0.78316,-1.74763 1.70744,-2.27048 -0.2413,-0.24031 -0.60254,-0.32107 -0.94438,-0.22049 -0.16016,-0.7433 -0.4819,-1.26545 -0.84385,-1.72791 -0.36124,0.46246 -0.68262,0.98461 -0.84349,1.72791 -0.34149,-0.10058 -0.70309,-0.0198 -0.94403,0.22049 0.92392,0.52285 1.48625,1.28612 1.70744,2.27048 0.0201,0.0803 0.0603,0.2413 0.0801,0.36117 0.0402,-0.14002 0.0402,-0.22077 0.0808,-0.36117" />
    <path
       inkscape:connector-curvature="0"
       id="path674"
       style="fill:#373435;fill-opacity:1;fill-rule:evenodd;stroke:none;stroke-width:0.03527778"
       d="m 7.1028249,291.99012 c 12.1740011,0.2209 24.3275511,0.2209 36.3604511,0.68336 -0.40146,-0.4222 -0.40146,-0.88413 0,-1.38642 -12.11333,0.4819 -24.24642,0.56237 -36.3604511,0.70306" />
    <path
       inkscape:connector-curvature="0"
       id="path676"
       style="fill:#373435;fill-opacity:1;fill-rule:evenodd;stroke:none;stroke-width:0.03527778"
       d="m 26.729616,292.53265 c 0.30127,0 0.54257,-0.2413 0.54257,-0.54253 0,-0.30124 -0.2413,-0.54226 -0.54257,-0.54226 -0.30163,0 -0.54222,0.24102 -0.54222,0.54226 0,0.30123 0.24059,0.54253 0.54222,0.54253" />
    <path
       inkscape:connector-curvature="0"
       id="path678"
       style="fill:#373435;fill-opacity:1;fill-rule:evenodd;stroke:none;stroke-width:0.03527778"
       d="m 26.729616,292.3316 c 0.20073,0 0.34113,-0.16083 0.34113,-0.34148 0,-0.18094 -0.1404,-0.34146 -0.34113,-0.34146 -0.18062,0 -0.34149,0.16052 -0.34149,0.34146 0,0.18065 0.16087,0.34148 0.34149,0.34148" />
    <path
       inkscape:connector-curvature="0"
       id="path680"
       style="fill:#373435;fill-opacity:1;fill-rule:evenodd;stroke:none;stroke-width:0.03527778"
       d="m 38.481346,292.83403 c 0.46214,0 0.8442,-0.38213 0.8442,-0.84391 0,-0.46246 -0.38206,-0.84378 -0.8442,-0.84378 -0.46179,0 -0.84314,0.38132 -0.84314,0.84378 0,0.46178 0.38135,0.84391 0.84314,0.84391" />
    <path
       inkscape:connector-curvature="0"
       id="path682"
       style="fill:#373435;fill-opacity:1;fill-rule:evenodd;stroke:none;stroke-width:0.03527778"
       d="m 38.481346,292.51254 c 0.28116,0 0.52246,-0.2413 0.52246,-0.52242 0,-0.30124 -0.2413,-0.52212 -0.52246,-0.52212 -0.28116,0 -0.52176,0.22088 -0.52176,0.52212 0,0.28112 0.2406,0.52242 0.52176,0.52242" />
  </g>
</svg>
