<?xml version="1.0" encoding="UTF-8" standalone="no"?>
<svg
   xmlns:dc="http://purl.org/dc/elements/1.1/"
   xmlns:cc="http://creativecommons.org/ns#"
   xmlns:rdf="http://www.w3.org/1999/02/22-rdf-syntax-ns#"
   xmlns:svg="http://www.w3.org/2000/svg"
   xmlns="http://www.w3.org/2000/svg"
   xmlns:sodipodi="http://sodipodi.sourceforge.net/DTD/sodipodi-0.dtd"
   xmlns:inkscape="http://www.inkscape.org/namespaces/inkscape"
   version="1.1"
   x="0px"
   y="0px"
   viewBox="0 0 1000 1000"
   enable-background="new 0 0 1000 1000"
   xml:space="preserve"
   id="svg32"
   sodipodi:docname="equipamento.svg"
   inkscape:version="0.92.4 (5da689c313, 2019-01-14)"><metadata
   id="metadata14"><rdf:RDF><cc:Work
       rdf:about=""><dc:format>image/svg+xml</dc:format><dc:type
         rdf:resource="http://purl.org/dc/dcmitype/StillImage" /></cc:Work></rdf:RDF></metadata><defs
   id="defs36" /><sodipodi:namedview
   pagecolor="#ffffff"
   bordercolor="#666666"
   borderopacity="1"
   objecttolerance="10"
   gridtolerance="10"
   guidetolerance="10"
   inkscape:pageopacity="0"
   inkscape:pageshadow="2"
   inkscape:window-width="1366"
   inkscape:window-height="705"
   id="namedview34"
   showgrid="false"
   inkscape:zoom="0.472"
   inkscape:cx="617.9797"
   inkscape:cy="507.70632"
   inkscape:window-x="-8"
   inkscape:window-y="-8"
   inkscape:window-maximized="1"
   inkscape:current-layer="g28" />
<g
   id="g28"
   transform="matrix(0.1,0,0,-0.1,0,512)"><path
     inkscape:connector-curvature="0"
     id="path4"
     d="m 4634.1,4975.9 c -172.6,-57.5 -299.2,-136.2 -416.2,-255.1 -101.6,-105.5 -226.3,-326 -247.4,-441.1 L 3959,4214.5 H 3635 3310.9 V 2795.3 1376.2 H 4931.5 6552 v 1419.2 1419.2 l -318.3,3.8 -318.4,5.8 -32.6,105.5 c -55.6,172.6 -115.1,270.4 -249.3,402.7 -209,207.1 -410.4,287.7 -711.5,287.7 -117.1,-0.1 -197.6,-13.5 -287.8,-44.2 z M 5153.9,4694 c 128.5,-40.3 258.9,-130.4 339.5,-235.9 51.8,-69 126.6,-222.5 113.2,-235.9 -3.8,-3.8 -310.7,-5.8 -680.8,-3.8 l -675.1,5.8 46,97.8 c 151.4,327.9 508.1,481.3 857.2,372 z"
     style="fill:#373435;fill-opacity:1"
     sodipodi:nodetypes="ccccccccccccccccccccscccc" /><path
     inkscape:connector-curvature="0"
     id="path6"
     d="m 1453.9,4187.7 c -161.1,-57.5 -266.6,-178.4 -303,-343.3 -15.3,-69 -19.2,-412.3 -15.3,-1116.2 5.8,-1006.9 5.8,-1016.4 47.9,-1095.1 53.7,-99.7 182.2,-212.9 272.3,-237.8 38.4,-9.6 951.8,-19.2 1103.3,-19.2 h 272.3 v 1419.2 1419.2 h -272.3 c -178.4,-1.9 -1059.2,-11.5 -1105.2,-26.8 z"
     style="fill:#373435;fill-opacity:1"
     sodipodi:nodetypes="cccccsccccc" /><path
     inkscape:connector-curvature="0"
     id="path8"
     d="M 7050.6,2793.4 V 1374.2 l 303,5.8 c 301.1,5.8 1124.9,5.8 1218.9,63.3 57.5,36.4 115.1,94 151.5,151.5 l 57.5,94 5.8,1062.5 c 3.8,736.4 -1.9,1087.4 -17.2,1143 -26.9,105.5 -188,262.7 -297.3,297.3 -46,13.4 -1009.9,23 -1161.4,23 h -260.8 z"
     style="fill:#373435;fill-opacity:1"
     sodipodi:nodetypes="cccccccccscc" /><path
     inkscape:connector-curvature="0"
     id="path14"
     d="m 1131.7,-261.7 v -1622.5 h 3799.7 3859.7 v 1620.5 1622.5 l -71,-57.5 C 8593.5,1199.6 7685.3,1178.6 7353.5,1169 l -303,-7.7 v -74.8 -72.9 l 130.4,-5.8 128.5,-5.8 V 643.6 283 H 7181 7052.5 L 7041,192.9 c -5.8,-51.8 -13.4,-105.5 -15.3,-120.8 -1.9,-15.3 -55.6,-55.6 -117,-90.1 l -113.1,-63.3 -120.8,67.1 -122.7,69 V 168 283 h -134.2 -134.2 v 364.4 364.4 h 134.2 134.1 v 76.7 76.7 H 4931.4 3310.8 v -76.7 -76.7 H 3445 3579.2 V 647.4 283 H 3445 3312.7 l -5.8,-118.9 -5.8,-118.9 -113.1,-63.3 -113,-63.3 -120.8,67.1 -122.7,69 V 167.9 283 h -134.2 -134.2 v 364.4 364.4 h 134.2 134.2 v 74.8 74.8 l -310.7,7.7 c -337.5,7.7 -1178.1,28.8 -1325.8,141.9 l -63.3,47.9 z"
     style="fill:#373435;fill-opacity:1"
     sodipodi:nodetypes="ccccccccccccccccccscccccccccccccccccccccccccccccccccccccccccccc" /><path
     inkscape:connector-curvature="0"
     id="path16"
     d="m 2758.5,643.6 5.8,-159.2 312.6,-5.8 310.7,-3.8 v 163 163 h -316.4 -318.4 z"
     style="fill:#373435;fill-opacity:1"
     sodipodi:nodetypes="ccccccccc" /><path
     inkscape:connector-curvature="0"
     id="path18"
     d="m 6494.4,637.8 v -163 h 306.8 306.9 v 163 163 h -306.9 -306.8 z"
     style="fill:#373435;fill-opacity:1"
     sodipodi:nodetypes="ccccccccc" /><path
     inkscape:connector-curvature="0"
     id="path24"
     d="m 1135.5,-2885.2 c 5.8,-769 7.7,-794 47.9,-868.8 23,-42.2 69,-103.6 105.5,-138.1 134.2,-130.4 687.1,-120.8 3646.3,-120.8 h 3501.1 l 95.9,46 c 115.1,53.7 166.8,107.4 218.6,222.5 38.4,82.5 40.3,122.7 40.3,868.8 V -2095 H 4929.5 1129.8 Z"
     style="fill:#373435;fill-opacity:1"
     sodipodi:nodetypes="cccscccscccc" /><path
     inkscape:connector-curvature="0"
     id="path26"
     d="m 1131.7,-4200.8 c 0,-287.7 72.9,-439.2 255.1,-531.2 l 97.8,-47.9 h 3454.5 c 2692.6,0 3514.5,0 3597,40.3 101.6,47.9 203.3,164.9 232,264.7 21.1,69 32.6,423.8 13.4,423.8 -3.8,0 -46,-24.9 -90.1,-57.5 -174.5,-120.8 -866,-117 -3809.9,-111.2 l -3433.4,5.8 -94,44.1 c -53.7,23 -124.7,65.2 -159.2,92.1 l -63.3,47.9 v -170.9 z"
     style="fill:#373435;fill-opacity:1"
     sodipodi:nodetypes="cccsccscccccccc" /></g>
</svg>