<?xml version="1.0" encoding="UTF-8" standalone="no"?>
<svg
   xmlns:dc="http://purl.org/dc/elements/1.1/"
   xmlns:cc="http://creativecommons.org/ns#"
   xmlns:rdf="http://www.w3.org/1999/02/22-rdf-syntax-ns#"
   xmlns:svg="http://www.w3.org/2000/svg"
   xmlns="http://www.w3.org/2000/svg"
   xmlns:sodipodi="http://sodipodi.sourceforge.net/DTD/sodipodi-0.dtd"
   xmlns:inkscape="http://www.inkscape.org/namespaces/inkscape"
   enable-background="new 0 0 48 48"
   height="48px"
   id="Layer_1"
   version="1.1"
   viewBox="0 0 48 48"
   width="48px"
   xml:space="preserve"
   sodipodi:docname="heart.svg"
   inkscape:version="0.92.4 (5da689c313, 2019-01-14)"><metadata
     id="metadata9"><rdf:RDF><cc:Work
         rdf:about=""><dc:format>image/svg+xml</dc:format><dc:type
           rdf:resource="http://purl.org/dc/dcmitype/StillImage" /></cc:Work></rdf:RDF></metadata><defs
     id="defs7" /><sodipodi:namedview
     pagecolor="#ffffff"
     bordercolor="#666666"
     borderopacity="1"
     objecttolerance="10"
     gridtolerance="10"
     guidetolerance="10"
     inkscape:pageopacity="0"
     inkscape:pageshadow="2"
     inkscape:window-width="1366"
     inkscape:window-height="705"
     id="namedview5"
     showgrid="false"
     inkscape:zoom="4.9166667"
     inkscape:cx="24"
     inkscape:cy="24"
     inkscape:window-x="-8"
     inkscape:window-y="-8"
     inkscape:window-maximized="1"
     inkscape:current-layer="Layer_1" /><path
     clip-rule="evenodd"
     d="M24.804,43.648L24,44l-0.804-0.352C12.862,37.313,2,22.893,2,14.884  C2.035,8.326,7.404,3.002,14,3.002c4.169,0,7.849,2.128,10,5.349c2.151-3.221,5.831-5.349,10-5.349c6.596,0,11.965,5.324,12,11.882  C46,22.893,35.138,37.313,24.804,43.648z M34,4.993c-3.354,0-6.469,1.667-8.335,4.46L24,11.946l-1.665-2.494  C20.469,6.66,17.354,4.993,14,4.993c-5.484,0-9.971,4.442-10,9.891c0,7.064,10.234,20.808,20,26.917  c9.766-6.109,20-19.852,20-26.907C43.971,9.435,39.484,4.993,34,4.993z"
     fill-rule="evenodd"
     id="path2"
     style="fill:#7f3300;fill-opacity:1" /></svg>