<?xml version="1.0" encoding="UTF-8" standalone="no"?>
<svg
   xmlns:dc="http://purl.org/dc/elements/1.1/"
   xmlns:cc="http://creativecommons.org/ns#"
   xmlns:rdf="http://www.w3.org/1999/02/22-rdf-syntax-ns#"
   xmlns:svg="http://www.w3.org/2000/svg"
   xmlns="http://www.w3.org/2000/svg"
   xmlns:sodipodi="http://sodipodi.sourceforge.net/DTD/sodipodi-0.dtd"
   xmlns:inkscape="http://www.inkscape.org/namespaces/inkscape"
   style="enable-background:new 0 0 64 64;"
   version="1.1"
   viewBox="0 0 64 64"
   xml:space="preserve"
   id="svg45"
   sodipodi:docname="lanterna.svg"
   inkscape:version="0.92.4 (5da689c313, 2019-01-14)"><metadata
     id="metadata51"><rdf:RDF><cc:Work
         rdf:about=""><dc:format>image/svg+xml</dc:format><dc:type
           rdf:resource="http://purl.org/dc/dcmitype/StillImage" /></cc:Work></rdf:RDF></metadata><defs
     id="defs49" /><sodipodi:namedview
     pagecolor="#ffffff"
     bordercolor="#666666"
     borderopacity="1"
     objecttolerance="10"
     gridtolerance="10"
     guidetolerance="10"
     inkscape:pageopacity="0"
     inkscape:pageshadow="2"
     inkscape:window-width="1366"
     inkscape:window-height="705"
     id="namedview47"
     showgrid="false"
     inkscape:zoom="3.6875"
     inkscape:cx="32"
     inkscape:cy="32"
     inkscape:window-x="-8"
     inkscape:window-y="-8"
     inkscape:window-maximized="1"
     inkscape:current-layer="svg45" /><g
     id="Layer_2" /><g
     id="Layer_3" /><g
     id="Layer_4" /><g
     id="Layer_5" /><g
     id="Layer_6" /><g
     id="Layer_7" /><g
     id="Layer_8" /><g
     id="Layer_9" /><g
     id="Layer_10" /><g
     id="Layer_11"
     style="fill:#373435;fill-opacity:1"><g
       id="g27"
       style="fill:#373435;fill-opacity:1"><path
         d="M42.6,56.5V30c0,0,0,0,0,0c0-0.1,0-0.2,0-0.2c0-0.1,0-0.1-0.1-0.2c0-0.1-0.1-0.1-0.1-0.2c0-0.1-0.1-0.1-0.1-0.2    c0,0,0,0,0,0l-4.6-3.8l1.5-2.7h2.4c0.6,0,1.1-0.5,1.1-1.1l0-2.6c1.2-1.9,1.8-4.2,1.8-6.5C44.4,5.6,38.8,0,32,0S19.5,5.6,19.5,12.4    c0,2.3,0.6,4.6,1.8,6.5l0,2.6c0,0.3,0.1,0.6,0.3,0.8c0.2,0.2,0.5,0.3,0.8,0.3h2.4l1.5,2.7l-4.6,3.8c0,0,0,0,0,0    c-0.1,0.1-0.1,0.1-0.1,0.2c0,0.1-0.1,0.1-0.1,0.2c0,0.1,0,0.1-0.1,0.2c0,0.1,0,0.2,0,0.2c0,0,0,0,0,0v26.5c-2.9,0.7-5,3.3-5,6.4    c0,0.6,0.5,1.1,1.1,1.1h29c0.6,0,1.1-0.5,1.1-1.1C47.6,59.8,45.5,57.2,42.6,56.5z M34.2,56.3h-4.4v-3.8h4.4V56.3z M34.2,50.3h-4.4    c-1.2,0-2.2,1-2.2,2.2v3.8h-4V31.1h16.8v25.2h-4v-3.8C36.4,51.3,35.4,50.3,34.2,50.3z M35.6,24.5h-7.3l-1.6-3l0.9-2.3    c0.5-1.2,1.7-2.1,3.1-2.1h2.6c1.3,0,2.6,0.8,3.1,2.1l0.9,2.3L35.6,24.5z M28.1,26.7h7.7l2.6,2.2h-13L28.1,26.7z M23.4,18    c-1.1-1.7-1.7-3.6-1.7-5.6c0-5.6,4.6-10.2,10.2-10.2c5.6,0,10.2,4.6,10.2,10.2c0,2-0.6,3.9-1.6,5.5c-0.1,0.2-0.2,0.4-0.2,0.6    l0,1.8h-1.2l-0.8-2c-0.8-2.1-2.9-3.5-5.1-3.5h-2.6c-2.2,0-4.3,1.4-5.1,3.5l-0.8,2h-1.2l0-1.8C23.6,18.4,23.5,18.2,23.4,18z     M18.7,61.8c0.5-1.9,2.2-3.3,4.3-3.3h5.7h6.6H41c2.1,0,3.8,1.4,4.3,3.3H18.7z"
         id="path11"
         style="fill:#373435;fill-opacity:1" /><path
         d="M32.9,36.7c-0.4-0.7-1.5-0.7-1.9,0c-0.6,0.9-3.5,5.8-3.5,7.8c0,2.4,2,4.4,4.4,4.4s4.4-2,4.4-4.4    C36.4,42.4,33.5,37.6,32.9,36.7z M32,46.7c-1.2,0-2.2-1-2.2-2.2c0-0.7,1-2.9,2.2-5c1.2,2.1,2.2,4.3,2.2,5    C34.2,45.7,33.2,46.7,32,46.7z"
         id="path13"
         style="fill:#373435;fill-opacity:1" /><path
         d="M52.1,41.4h-5.6c-0.6,0-1.1,0.5-1.1,1.1s0.5,1.1,1.1,1.1h5.6c0.6,0,1.1-0.5,1.1-1.1S52.7,41.4,52.1,41.4z"
         id="path15"
         style="fill:#373435;fill-opacity:1" /><path
         d="M45.6,38.7c0.1,0,0.3,0,0.4-0.1l5.3-1.9c0.6-0.2,0.9-0.8,0.7-1.4c-0.2-0.6-0.8-0.9-1.4-0.7l-5.3,1.9    c-0.6,0.2-0.9,0.8-0.7,1.4C44.8,38.4,45.2,38.7,45.6,38.7z"
         id="path17"
         style="fill:#373435;fill-opacity:1" /><path
         d="M51.3,48.4L46,46.4c-0.6-0.2-1.2,0.1-1.4,0.7c-0.2,0.6,0.1,1.2,0.7,1.4l5.3,1.9c0.1,0,0.3,0.1,0.4,0.1    c0.5,0,0.9-0.3,1-0.7C52.2,49.2,51.9,48.6,51.3,48.4z"
         id="path19"
         style="fill:#373435;fill-opacity:1" /><path
         d="M18.6,42.5c0-0.6-0.5-1.1-1.1-1.1h-5.6c-0.6,0-1.1,0.5-1.1,1.1s0.5,1.1,1.1,1.1h5.6C18.1,43.6,18.6,43.1,18.6,42.5z"
         id="path21"
         style="fill:#373435;fill-opacity:1" /><path
         d="M12.7,36.7l5.3,1.9c0.1,0,0.3,0.1,0.4,0.1c0.5,0,0.9-0.3,1-0.7c0.2-0.6-0.1-1.2-0.7-1.4l-5.3-1.9    c-0.6-0.2-1.2,0.1-1.4,0.7C11.8,35.8,12.1,36.5,12.7,36.7z"
         id="path23"
         style="fill:#373435;fill-opacity:1" /><path
         d="M19.4,47.1c-0.2-0.6-0.8-0.9-1.4-0.7l-5.3,1.9c-0.6,0.2-0.9,0.8-0.7,1.4c0.2,0.4,0.6,0.7,1,0.7c0.1,0,0.3,0,0.4-0.1    l5.3-1.9C19.3,48.3,19.6,47.7,19.4,47.1z"
         id="path25"
         style="fill:#373435;fill-opacity:1" /></g></g><g
     id="Layer_12" /><g
     id="Layer_13" /><g
     id="Layer_15" /><g
     id="Layer_16" /><g
     id="Layer_17" /><g
     id="Layer_18" /><g
     id="Layer_19" /><g
     id="Layer_20" /><g
     id="Layer_21" /><g
     id="Layer_22" /><g
     id="Layer_23" /><g
     id="Layer_24" /><g
     id="Layer_25" /><g
     id="Layer_26" /><g
     id="Layer_27" /></svg>