<?xml version="1.0" encoding="UTF-8" standalone="no"?>
<svg
   xmlns:dc="http://purl.org/dc/elements/1.1/"
   xmlns:cc="http://creativecommons.org/ns#"
   xmlns:rdf="http://www.w3.org/1999/02/22-rdf-syntax-ns#"
   xmlns:svg="http://www.w3.org/2000/svg"
   xmlns="http://www.w3.org/2000/svg"
   xmlns:sodipodi="http://sodipodi.sourceforge.net/DTD/sodipodi-0.dtd"
   xmlns:inkscape="http://www.inkscape.org/namespaces/inkscape"
   height="64px"
   id="ICONS"
   style="enable-background:new 0 0 64 64;"
   version="1.1"
   viewBox="0 0 64 64"
   width="64px"
   xml:space="preserve"
   sodipodi:docname="magic.svg"
   inkscape:version="0.92.4 (5da689c313, 2019-01-14)"><metadata
     id="metadata61"><rdf:RDF><cc:Work
         rdf:about=""><dc:format>image/svg+xml</dc:format><dc:type
           rdf:resource="http://purl.org/dc/dcmitype/StillImage" /></cc:Work></rdf:RDF></metadata><defs
     id="defs59" /><sodipodi:namedview
     pagecolor="#ffffff"
     bordercolor="#666666"
     borderopacity="1"
     objecttolerance="10"
     gridtolerance="10"
     guidetolerance="10"
     inkscape:pageopacity="0"
     inkscape:pageshadow="2"
     inkscape:window-width="1366"
     inkscape:window-height="705"
     id="namedview57"
     showgrid="false"
     inkscape:zoom="3.6875"
     inkscape:cx="32"
     inkscape:cy="32"
     inkscape:window-x="-8"
     inkscape:window-y="-8"
     inkscape:window-maximized="1"
     inkscape:current-layer="ICONS" /><circle
     id="circle2"
     style="fill:#ffffff;stroke:#373435;stroke-opacity:1;fill-opacity:1"
     r="1"
     cy="22.635"
     cx="11" /><circle
     id="circle4"
     style="fill:#ffffff;stroke:#373435;stroke-opacity:1;fill-opacity:1"
     r="1"
     cy="29.635"
     cx="16" /><circle
     id="circle6"
     style="fill:#ffffff;stroke:#373435;stroke-opacity:1;fill-opacity:1"
     r="1"
     cy="14.635"
     cx="29" /><circle
     id="circle8"
     style="fill:#ffffff;stroke:#373435;stroke-opacity:1;fill-opacity:1"
     r="1"
     cy="39.634998"
     cx="52" /><path
     inkscape:connector-curvature="0"
     id="path10"
     style="fill:none;stroke:#373435;stroke-width:2;stroke-linecap:round;stroke-linejoin:round;stroke-miterlimit:10;stroke-opacity:1"
     d="m 5,54.461 12.442,-7.438 c 0.683,-0.408 1.488,-0.562 2.273,-0.435 l 18.628,3.031 c 1.237,0.202 2.505,0.107 3.699,-0.275 L 59,43.913 47.557,55 c -1.296,1.255 -3.104,1.832 -4.888,1.558 L 23.048,53.546 c -1.06,-0.163 -2.135,-0.207 -3.204,-0.131 z" /><path
     inkscape:connector-curvature="0"
     id="path12"
     style="fill:none;stroke:#373435;stroke-width:2;stroke-linecap:round;stroke-linejoin:round;stroke-miterlimit:10;stroke-opacity:1"
     d="m 19.716,46.588 2.167,-21.074 c 0.081,-0.784 0.614,-1.447 1.362,-1.694 l 15.226,-5.035 c 0.616,-0.204 1.095,-0.694 1.285,-1.314 l 2.392,-7.827 c 0.241,-0.789 0.941,-1.349 1.764,-1.41 L 55.308,7.382 c 0.576,-0.043 1.143,0.165 1.554,0.571 0.411,0.406 0.627,0.97 0.591,1.546 l -0.562,9.102 -2.109,-6.188 -5.906,0.422 -0.805,9.47 c -0.072,0.845 -0.67,1.554 -1.491,1.767 l -2.767,0.717 3.331,22.922" /><path
     inkscape:connector-curvature="0"
     id="path14"
     style="fill:none;stroke:#373435;stroke-width:2;stroke-linecap:round;stroke-linejoin:round;stroke-miterlimit:10;stroke-opacity:1"
     d="m 37,44 c 0,1.104 -0.896,2 -2,2 h -3 c -1.104,0 -2,-0.896 -2,-2 v -4 c 0,-1.104 0.896,-2 2,-2 h 3 c 1.104,0 2,0.896 2,2 z" /><line
     id="line16"
     y2="40"
     y1="40"
     x2="30"
     x1="21"
     style="fill:none;stroke:#373435;stroke-width:2;stroke-linecap:round;stroke-linejoin:round;stroke-miterlimit:10;stroke-opacity:1" /><line
     id="line18"
     y2="40"
     y1="40"
     x2="45"
     x1="37"
     style="fill:none;stroke:#373435;stroke-width:2;stroke-linecap:round;stroke-linejoin:round;stroke-miterlimit:10;stroke-opacity:1" /><line
     id="line20"
     y2="44"
     y1="44"
     x2="20"
     x1="30"
     style="fill:none;stroke:#373435;stroke-width:2;stroke-linecap:round;stroke-linejoin:round;stroke-miterlimit:10;stroke-opacity:1" /><line
     id="line22"
     y2="44"
     y1="44"
     x2="46"
     x1="37"
     style="fill:none;stroke:#373435;stroke-width:2;stroke-linecap:round;stroke-linejoin:round;stroke-miterlimit:10;stroke-opacity:1" /><g
     style="stroke:#373435;stroke-opacity:1"
     id="g32"><line
       id="line24"
       y2="36"
       y1="35"
       x2="11"
       x1="11"
       style="fill:none;stroke:#373435;stroke-width:2;stroke-linecap:round;stroke-linejoin:round;stroke-miterlimit:10;stroke-opacity:1" /><line
       id="line26"
       y2="41"
       y1="40"
       x2="11"
       x1="11"
       style="fill:none;stroke:#373435;stroke-width:2;stroke-linecap:round;stroke-linejoin:round;stroke-miterlimit:10;stroke-opacity:1" /><line
       id="line28"
       y2="38"
       y1="38"
       x2="13"
       x1="14"
       style="fill:none;stroke:#373435;stroke-width:2;stroke-linecap:round;stroke-linejoin:round;stroke-miterlimit:10;stroke-opacity:1" /><line
       id="line30"
       y2="38"
       y1="38"
       x2="8"
       x1="9"
       style="fill:none;stroke:#373435;stroke-width:2;stroke-linecap:round;stroke-linejoin:round;stroke-miterlimit:10;stroke-opacity:1" /></g><g
     style="stroke:#373435;stroke-opacity:1"
     id="g42"><line
       id="line34"
       y2="14"
       y1="13"
       x2="20"
       x1="20"
       style="fill:none;stroke:#373435;stroke-width:2;stroke-linecap:round;stroke-linejoin:round;stroke-miterlimit:10;stroke-opacity:1" /><line
       id="line36"
       y2="19"
       y1="18"
       x2="20"
       x1="20"
       style="fill:none;stroke:#373435;stroke-width:2;stroke-linecap:round;stroke-linejoin:round;stroke-miterlimit:10;stroke-opacity:1" /><line
       id="line38"
       y2="16"
       y1="16"
       x2="22"
       x1="23"
       style="fill:none;stroke:#373435;stroke-width:2;stroke-linecap:round;stroke-linejoin:round;stroke-miterlimit:10;stroke-opacity:1" /><line
       id="line40"
       y2="16"
       y1="16"
       x2="17"
       x1="18"
       style="fill:none;stroke:#373435;stroke-width:2;stroke-linecap:round;stroke-linejoin:round;stroke-miterlimit:10;stroke-opacity:1" /></g><g
     style="stroke:#373435;stroke-opacity:1"
     id="g52"><line
       id="line44"
       y2="27"
       y1="26"
       x2="53"
       x1="53"
       style="fill:none;stroke:#373435;stroke-width:2;stroke-linecap:round;stroke-linejoin:round;stroke-miterlimit:10;stroke-opacity:1" /><line
       id="line46"
       y2="32"
       y1="31"
       x2="53"
       x1="53"
       style="fill:none;stroke:#373435;stroke-width:2;stroke-linecap:round;stroke-linejoin:round;stroke-miterlimit:10;stroke-opacity:1" /><line
       id="line48"
       y2="29"
       y1="29"
       x2="55"
       x1="56"
       style="fill:none;stroke:#373435;stroke-width:2;stroke-linecap:round;stroke-linejoin:round;stroke-miterlimit:10;stroke-opacity:1" /><line
       id="line50"
       y2="29"
       y1="29"
       x2="50"
       x1="51"
       style="fill:none;stroke:#373435;stroke-width:2;stroke-linecap:round;stroke-linejoin:round;stroke-miterlimit:10;stroke-opacity:1" /></g></svg>