<?xml version="1.0" encoding="UTF-8" standalone="no"?>
<svg
   xmlns:dc="http://purl.org/dc/elements/1.1/"
   xmlns:cc="http://creativecommons.org/ns#"
   xmlns:rdf="http://www.w3.org/1999/02/22-rdf-syntax-ns#"
   xmlns:svg="http://www.w3.org/2000/svg"
   xmlns="http://www.w3.org/2000/svg"
   xmlns:sodipodi="http://sodipodi.sourceforge.net/DTD/sodipodi-0.dtd"
   xmlns:inkscape="http://www.inkscape.org/namespaces/inkscape"
   height="512px"
   style="enable-background:new 0 0 512 512;"
   version="1.1"
   viewBox="0 0 512 512"
   width="512px"
   xml:space="preserve"
   id="svg42"
   sodipodi:docname="portando-true.svg"
   inkscape:version="0.92.4 (5da689c313, 2019-01-14)"><metadata
     id="metadata48"><rdf:RDF><cc:Work
         rdf:about=""><dc:format>image/svg+xml</dc:format><dc:type
           rdf:resource="http://purl.org/dc/dcmitype/StillImage" /><dc:title></dc:title></cc:Work></rdf:RDF></metadata><defs
     id="defs46" /><sodipodi:namedview
     pagecolor="#ffffff"
     bordercolor="#666666"
     borderopacity="1"
     objecttolerance="10"
     gridtolerance="10"
     guidetolerance="10"
     inkscape:pageopacity="0"
     inkscape:pageshadow="2"
     inkscape:window-width="1366"
     inkscape:window-height="705"
     id="namedview44"
     showgrid="false"
     inkscape:zoom="0.4609375"
     inkscape:cx="256"
     inkscape:cy="256"
     inkscape:window-x="-8"
     inkscape:window-y="-8"
     inkscape:window-maximized="1"
     inkscape:current-layer="g38" /><g
     id="g38"><rect
       id="rect26"
       y="205.707"
       x="25.158001"
       width="45.417999"
       height="203.703" /><path
       inkscape:connector-curvature="0"
       id="path30"
       d="m 465.367,297.479 -2.427,-0.135 c -1.33,-0.074 -2.66,-0.148 -3.99,-0.229 -35.473,11.117 -78.377,22.59 -128.239,24.055 l -61.324,27.256 c -0.516,0.229 -1.068,0.344 -1.625,0.344 -0.328,0 -0.657,-0.039 -0.979,-0.121 L 162.244,322.243 c -2.142,-0.541 -3.44,-2.717 -2.899,-4.857 0.541,-2.143 2.715,-3.439 4.858,-2.898 l 103.197,26.065 57.286,-25.459 c -7.828,-19.199 -19.438,-32.342 -35.404,-40.105 -18.312,-5.475 -35.521,-5.15 -51.396,-3.977 -5.172,0.379 -8.373,1.064 -10.945,1.615 -8.15,1.744 -10.454,0.91 -22.396,-8.131 -5.847,-4.424 -11.291,-9.387 -16.556,-14.186 -2.366,-2.158 -4.807,-4.383 -7.245,-6.521 -20.215,-6.348 -34.635,-1.525 -52.829,4.563 -4.227,1.414 -8.597,2.875 -13.248,4.262 l -33.014,9.834 c -1.073,0.318 -2.171,0.164 -3.078,-0.338 v 93.889 l 171.979,52.74 c 17.694,5.912 34.37,4.85 51.08,-3.225 0.111,-0.053 0.225,-0.102 0.341,-0.145 l 69.562,-25.979 c 36.799,-13.744 73.603,-27.49 110.416,-41.232 5.647,-12.816 6.431,-24.211 2.114,-31.432 -3.357,-5.617 -9.649,-8.726 -18.7,-9.247 z" /><path
       style="fill:#000000;fill-opacity:1;stroke:#000000;stroke-width:1px;stroke-linecap:butt;stroke-linejoin:miter;stroke-opacity:1"
       d="M 199.59322,116.33898 275.52542,242.16949 436.77966,53.932203 279.86441,181.42373 Z"
       id="path877"
       inkscape:connector-curvature="0"
       sodipodi:nodetypes="ccccc" /></g><g
     id="Layer_1" /></svg>