<?xml version="1.0" ?><!DOCTYPE svg  PUBLIC '-//W3C//DTD SVG 1.1//EN'  'http://www.w3.org/Graphics/SVG/1.1/DTD/svg11.dtd'><svg height="512px" style="enable-background:new 0 0 512 512;" version="1.1" viewBox="0 0 512 512" width="512px" xml:space="preserve" xmlns="http://www.w3.org/2000/svg" xmlns:xlink="http://www.w3.org/1999/xlink"><g id="_x34_24_x2C_globe_x2C_hold_x2C_holding_x2C_hand_x2C_business"><g><path d="M419.726,187.49h-37.928v30.691c11.092,0.238,22.168,1.514,33.213,3.82C417.75,211.506,419.426,199.793,419.726,187.49z"/><path d="M412.737,229.705c-10.289-2.104-20.607-3.271-30.939-3.502v41.543C394.556,265.182,405.85,250.521,412.737,229.705z"/><path d="M415.012,144.98c-11.046,2.307-22.123,3.582-33.214,3.82v30.689h37.928C419.426,167.188,417.75,155.477,415.012,144.98z"/><path d="M334.931,231.564c-7.019,1.766-14.033,3.967-21.039,6.594c10.225,12.176,23.777,21.412,39.239,26.232    c-4.174-4.338-8.018-9.818-11.415-16.367C339.101,242.982,336.839,237.455,334.931,231.564z"/><path d="M422.963,223.834c7.949,2.02,15.88,4.59,23.786,7.686c8.647-12.629,13.992-27.73,14.747-44.029h-33.767    C427.443,200.541,425.77,212.818,422.963,223.834z"/><path d="M340.576,222.061c11.074-2.318,22.153-3.615,33.222-3.875V187.49h-37.955    C336.144,199.816,337.826,211.549,340.576,222.061z"/><path d="M402.55,264.367c15.433-4.83,28.959-14.061,39.166-26.223c-6.97-2.639-13.96-4.846-20.965-6.611    C416.348,245.248,410.08,256.563,402.55,264.367z"/><path d="M381.798,99.234v41.545c10.332-0.23,20.65-1.396,30.94-3.502C405.851,116.461,394.556,101.801,381.798,99.234z"/><path d="M427.729,179.49h33.767c-0.755-16.299-6.1-31.398-14.747-44.027c-7.905,3.096-15.836,5.664-23.786,7.686    C425.77,154.164,427.443,166.439,427.729,179.49z"/><path d="M441.716,128.838c-10.207-12.162-23.733-21.393-39.166-26.223c7.53,7.805,13.798,19.119,18.202,32.834    C427.757,133.684,434.746,131.477,441.716,128.838z"/><path d="M373.798,267.746v-41.539c-10.309,0.252-20.628,1.441-30.943,3.557C349.749,250.551,361.042,265.186,373.798,267.746z"/><path d="M327.843,187.49H294.1c0.754,16.303,6.102,31.406,14.752,44.037c7.94-3.08,15.892-5.637,23.848-7.652    C329.798,212.619,328.13,200.287,327.843,187.49z"/><rect height="203.703" width="45.418" x="25.158" y="205.707"/><path d="M335.843,179.49h37.955v-30.695c-11.069-0.258-22.148-1.555-33.222-3.873C337.826,155.434,336.144,167.166,335.843,179.49    z"/><path d="M465.367,297.479l-2.427-0.135c-1.33-0.074-2.66-0.148-3.99-0.229c-35.473,11.117-78.377,22.59-128.239,24.055    l-61.324,27.256c-0.516,0.229-1.068,0.344-1.625,0.344c-0.328,0-0.657-0.039-0.979-0.121l-104.539-26.406    c-2.142-0.541-3.44-2.717-2.899-4.857c0.541-2.143,2.715-3.439,4.858-2.898L267.4,340.553l57.286-25.459    c-7.828-19.199-19.438-32.342-35.404-40.105c-18.312-5.475-35.521-5.15-51.396-3.977c-5.172,0.379-8.373,1.064-10.945,1.615    c-8.15,1.744-10.454,0.91-22.396-8.131c-5.847-4.424-11.291-9.387-16.556-14.186c-2.366-2.158-4.807-4.383-7.245-6.521    c-20.215-6.348-34.635-1.525-52.829,4.563c-4.227,1.414-8.597,2.875-13.248,4.262l-33.014,9.834    c-1.073,0.318-2.171,0.164-3.078-0.338v93.889l171.979,52.74c17.694,5.912,34.37,4.85,51.08-3.225    c0.111-0.053,0.225-0.102,0.341-0.145l69.562-25.979c36.799-13.744,73.603-27.49,110.416-41.232    c5.647-12.816,6.431-24.211,2.114-31.432C480.71,301.109,474.418,298,465.367,297.479z"/><path d="M373.798,140.775V99.234c-12.756,2.561-24.049,17.197-30.943,37.984C353.169,139.334,363.488,140.523,373.798,140.775z"/><path d="M332.699,143.107c-7.955-2.016-15.906-4.572-23.848-7.652c-8.65,12.631-13.998,27.734-14.752,44.035h33.743    C328.13,166.695,329.798,154.363,332.699,143.107z"/><path d="M341.716,118.957c3.397-6.549,7.241-12.029,11.415-16.367c-15.462,4.82-29.015,14.057-39.239,26.232    c7.006,2.629,14.021,4.83,21.038,6.594C336.839,129.527,339.101,123.998,341.716,118.957z"/></g></g><g id="Layer_1"/></svg>