<?xml version="1.0" standalone="no"?>
<!DOCTYPE svg PUBLIC "-//W3C//DTD SVG 20010904//EN"
 "http://www.w3.org/TR/2001/REC-SVG-20010904/DTD/svg10.dtd">
<svg version="1.0" xmlns="http://www.w3.org/2000/svg"
 width="452.000000pt" height="452.000000pt" viewBox="0 0 452.000000 452.000000"
 preserveAspectRatio="xMidYMid meet">

<g transform="translate(0.000000,452.000000) scale(0.100000,-0.100000)"
fill="#000000" stroke="none">
<path d="M2759 4248 c-1 -2 -15 -86 -32 -187 l-32 -185 -69 -28 c-38 -15 -70
-28 -71 -28 -1 0 -71 49 -156 110 l-154 110 -152 -152 c-84 -84 -153 -158
-153 -165 0 -7 47 -79 105 -161 l105 -150 -31 -68 c-17 -38 -32 -70 -34 -72
-1 -1 -71 -13 -156 -27 -85 -14 -166 -28 -181 -31 l-28 -6 0 -224 c0 -123 3
-224 6 -224 9 0 359 -62 360 -63 1 -1 15 -34 31 -73 l30 -71 -109 -153 -110
-153 159 -158 158 -158 153 109 c142 101 156 108 180 98 15 -6 47 -19 72 -28
l45 -18 30 -183 31 -184 224 0 225 0 32 179 c17 98 36 182 40 186 4 4 37 19
72 33 l64 26 149 -104 c82 -58 154 -105 160 -105 14 0 308 297 308 311 0 5
-47 75 -105 154 -58 80 -105 148 -105 151 0 4 12 37 26 74 l27 67 181 32 c101
17 185 31 189 31 4 0 7 101 7 225 0 124 -3 225 -7 225 -5 0 -87 14 -183 30
-96 16 -178 30 -181 30 -12 0 -60 140 -53 152 4 7 52 78 107 156 l100 144
-158 158 -158 158 -141 -102 c-78 -56 -147 -106 -154 -110 -10 -6 -118 30
-150 50 -1 1 -17 84 -35 185 l-33 184 -222 3 c-122 1 -222 1 -223 0z m295
-195 c2 -10 14 -76 26 -148 12 -71 25 -139 29 -150 6 -14 25 -25 62 -34 30 -7
100 -35 156 -63 l103 -50 136 98 136 97 49 -49 49 -49 -96 -138 -96 -138 45
-87 c24 -49 53 -120 63 -159 l18 -72 71 -12 c38 -6 113 -19 165 -28 l95 -16 0
-70 0 -70 -164 -30 -164 -30 -18 -65 c-10 -36 -39 -107 -64 -158 -26 -51 -43
-98 -39 -105 4 -6 48 -68 97 -136 l89 -124 -50 -50 -50 -49 -136 95 -136 95
-95 -48 c-53 -27 -120 -54 -150 -61 -29 -6 -58 -15 -64 -19 -6 -3 -23 -71 -36
-151 -35 -197 -25 -179 -105 -179 -79 0 -68 -21 -101 185 l-22 140 -101 33
c-56 18 -127 48 -159 67 l-58 35 -136 -96 -136 -95 -49 48 c-26 26 -46 53 -44
59 3 7 45 67 93 135 l89 124 -46 90 c-26 50 -55 122 -65 161 l-19 72 -163 27
-163 28 0 72 0 72 138 22 c75 12 149 24 164 27 22 4 28 13 39 56 16 67 51 153
88 216 l30 51 -96 136 -96 137 51 51 50 50 89 -65 c48 -35 109 -79 135 -96
l47 -32 63 34 c71 39 118 58 199 81 l56 16 17 102 c9 56 21 130 27 165 l11 62
68 0 c57 0 70 -3 74 -17z"/>
<path d="M2920 3428 c-137 -16 -282 -122 -344 -252 -127 -269 38 -584 335
-637 352 -63 633 313 478 639 -84 176 -267 273 -469 250z m184 -203 c47 -23
99 -74 122 -123 11 -21 20 -68 22 -110 4 -63 1 -79 -22 -127 -48 -97 -132
-149 -241 -149 -286 -1 -377 380 -122 509 45 23 62 26 127 23 47 -2 90 -11
114 -23z"/>
<path d="M1732 4190 c-192 -49 -310 -100 -451 -194 -326 -218 -520 -570 -597
-1086 l-17 -115 -190 -328 c-105 -181 -193 -346 -199 -370 -17 -76 10 -164 69
-218 15 -15 93 -59 173 -99 80 -40 146 -73 148 -75 1 -1 22 -150 47 -331 25
-181 50 -349 56 -374 30 -115 130 -246 230 -302 99 -54 131 -60 342 -65 l197
-5 0 -179 0 -179 90 0 90 0 0 269 0 269 -272 4 -273 3 -57 28 c-70 34 -141
111 -162 175 -13 38 -116 741 -116 789 0 7 -85 56 -190 108 -150 75 -191 100
-195 118 -5 18 38 100 190 361 l195 338 16 111 c96 698 400 1065 980 1186 50
10 101 24 112 30 48 26 55 84 16 130 -22 27 -32 31 -72 31 -26 -1 -98 -14
-160 -30z"/>
<path d="M3481 1736 c-55 -30 -197 -298 -250 -471 -51 -167 -59 -246 -64 -637
l-5 -358 89 0 c49 0 90 1 90 3 1 1 5 175 9 387 7 368 8 389 32 480 36 135 89
257 170 393 76 128 80 146 33 193 -27 27 -67 31 -104 10z"/>
</g>
</svg>
